# xmcd
#
# Track frame offsets:
#	150
#	12624
#	25062
#	36186
#	55354
#	68138
#	83918
#	93708
#	102439
#	116401
#	128904
#	139540
#	150516
#	168028
#
# Disc length: 2467 seconds
#
# Revision: 0
# Processed by: cddbd v1.5.2PL0 Copyright (c) Steve Scherf et al.
# Submitted via: audiograbber 1.83.01
#
DISCID=b309a10e
DTITLE=Various Artist - Country Ballads CD1
DYEAR=1900
DGENRE=Country
TTITLE0=Stand By Your Man - Lynn Anderson Stand by your man
TTITLE1=Charlie Rich - Behind closed doors
TTITLE2=Sandy Posey - I Take it back
TTITLE3=Bobby Bare - Me and Bobby McGee
TTITLE4=Willie Nelson - Any old arms won't do
TTITLE5=Billy Jo Spears - Blanket on the ground
TTITLE6=Johnny Cash - Born to loose
TTITLE7=Buck Owens - Why don't mammy stay with daddy and me
TTITLE8=Freddy Fender - Baby I want to love you
TTITLE9=Gene Autry - Goodnight Irene
TTITLE10=Jimmie Rodgers - Kisses sweeter than wine
TTITLE11=Dolly Parton - It wasn't God who made honkytonk angels
TTITLE12=Skeeter Davis - Always on my mind
TTITLE13=Glen Campbell - Southern nights
EXTD=
EXTT0=
EXTT1=
EXTT2=
EXTT3=
EXTT4=
EXTT5=
EXTT6=
EXTT7=
EXTT8=
EXTT9=
EXTT10=
EXTT11=
EXTT12=
EXTT13=
PLAYORDER=
